<svg viewBox="0 0 150 150" fill="none" xmlns="http://www.w3.org/2000/svg">
<path fill-rule="evenodd" clip-rule="evenodd" d="M42 41.14L63.58 40.85L65.9 29.19L84.78 29L87.62 40.5L107.41 40.24L108.12 120.35L43.06 119.71L42 41.14ZM75.65 36.91C70.93 36.91 70.65 44.05 75.73 44.05C80.33 44.05 80.36 36.91 75.65 36.91ZM48.8 113.91L94.37 114.51L102.76 99.44L101.82 45.66L96.71 45.82L94.14 55.62L55.47 55.09L53.81 47.09L47.37 47.29L48.8 113.91ZM62.89 71.91H54.89L54.75 65.41H62.75L62.89 71.91ZM63.12 84.98H55.12L55.06 78.39H63.06L63.12 84.98ZM95.96 71.64L67.48 71.81L67.34 65.3L95.85 65.14L95.96 71.64ZM96.19 84.95H67.77L67.63 78.45H96.08L96.19 84.95Z" fill="currentColor"/>
</svg>
