<svg viewBox="0 0 150 150" fill="none" xmlns="http://www.w3.org/2000/svg">
<path fill-rule="evenodd" clip-rule="evenodd" d="M76.2288 118.92C14.6988 118.92 17.4888 31 75.2288 31C132.789 31 132.429 118.92 76.2288 118.92ZM75.1688 37.27C25.6388 37.27 23.2588 112.66 76.0088 112.66C124.199 112.63 124.509 37.27 75.1688 37.27ZM106.859 79.42L96.1388 81.42L95.1388 73.72H106.849L106.859 79.42ZM71.3888 84.1L57.2388 69.01L60.2388 65.37L74.6088 73.2L99.4788 53.63L101.599 56.45L77.9788 83.34L71.3888 84.1ZM74.8788 44.7L81.3688 44.18L81.8488 56.18L75.2188 55.86L74.8788 44.7ZM67.1188 44.7H71.2188L72.2188 56.23L66.1388 55.23L67.1188 44.7ZM42.6988 75.69L54.2388 73.69L55.2388 81.52H43.6988L42.6988 75.69ZM79.5388 106.21L73.7188 107.83L71.7188 96.43L79.5288 95.8L79.5388 106.21Z" fill="currentColor"/>
</svg>
