<svg viewBox="0 0 150 150" fill="none" xmlns="http://www.w3.org/2000/svg">
<path fill-rule="evenodd" clip-rule="evenodd" d="M127.94 61.16L128.41 73.26L149.41 75.14L147.25 95.76L139.86 98.47C139.33 91.16 134.31 84.08 124.78 84.08C114.94 84.08 109.69 91.93 109.85 99.64H86.33C86.33 93.64 83.25 87.64 77.24 85.21L107.98 85.01L111.91 51.31L139.38 51.99L143.51 61.16H127.94ZM103.34 80.94L43.42 80.33C43.42 80.33 45.64 58.63 46.56 48.71C47.07 43.25 50.86 40 56.44 40C64.62 40 93.8 40.28 99.23 40.28C104.66 40.28 107.77 43.13 106.93 50.7C105.72 61.77 103.34 80.94 103.34 80.94ZM56.44 96.94L41.59 94.05L42.72 85.44L65.02 85.25C62.704 86.2889 60.6965 87.9098 59.1929 89.9549C57.6893 92 56.7409 94.3996 56.44 96.92V96.94ZM18.95 51.78L20.72 47.78L41.23 44.98L40.43 52.89L18.95 51.78ZM39 66.91L0 65.78L1.14 62.37L39.84 58.45L39 66.91ZM38.4 72.77L37.57 80.89L10 79.78L11.52 75.78L38.4 72.77ZM71.24 87.84C86 87.84 86.37 110.57 72.24 110.57C55.53 110.57 56.72 87.84 71.24 87.84ZM71.72 103.95C77.6 103.95 77.44 94.47 71.29 94.47C65.14 94.47 64.72 103.95 71.72 103.95ZM124.84 87.84C139.6 87.84 139.97 110.57 125.84 110.57C109.12 110.57 110.35 87.84 124.83 87.84H124.84ZM125.31 103.95C131.19 103.95 131.03 94.47 124.88 94.47C118.73 94.47 118.33 103.95 125.3 103.95H125.31Z" fill="currentColor"/>
</svg>
