<svg viewBox="0 0 150 150" fill="none" xmlns="http://www.w3.org/2000/svg">
<path fill-rule="evenodd" clip-rule="evenodd" d="M129.46 87.89C93.68 124.89 36.2 112.37 21.97 93.29C24.1784 87.6717 27.1351 82.3772 30.76 77.55L19 66.74L24.47 60.94L35.72 71.78C39.0979 68.316 42.9294 65.3255 47.11 62.89L37.75 47.08L44.81 43.08L53.97 59.58C58.8142 57.6712 63.9247 56.5243 69.12 56.18L69.31 38H77.2L76.63 56.22C82.2302 56.6583 87.7392 57.8941 92.99 59.89L101.63 42.01L108.52 45.01L100.52 63.15C104.979 65.4873 109.207 68.2394 113.15 71.37L123.63 57.81L130.3 63.17L119.24 76.7C122.906 80.1845 126.321 83.9238 129.46 87.89ZM44.55 74.35C40.5624 77.7375 37.0447 81.6419 34.09 85.96L36.37 95.38C41.6789 98.7525 47.4443 101.346 53.49 103.08C45.29 95.99 42.41 84.63 44.55 74.35ZM88.75 66.41C78.02 62.83 67.32 62.87 57.56 66.62C45.44 78.77 50.17 104.7 73.88 104.7C95.63 104.7 100.77 78.47 88.75 66.41ZM101.25 72.25C103.82 82 101.85 93.1 95.41 100.74C104.034 97.4066 112.162 92.9117 119.57 87.38C114.195 81.5111 108.029 76.4189 101.25 72.25ZM73.63 96.6C54.46 96.6 55.33 69.21 73.32 69.21C91.31 69.21 91.09 96.6 73.63 96.6Z" fill="currentColor"/>
</svg>
