<svg viewBox="0 0 150 150" fill="none" xmlns="http://www.w3.org/2000/svg">
<path fill-rule="evenodd" clip-rule="evenodd" d="M119.05 78.97L114.22 95.6L100.22 94.69C98.6527 96.931 96.7891 98.9493 94.68 100.69L95.79 114.69L79 118.84L72 106.26C71.12 106.1 70.22 105.91 69.31 105.67C67.156 105.105 65.0442 104.39 62.99 103.53L50.5 111.59L38.5 99.09L45.79 87.85C44.2984 84.7014 43.3645 81.3179 43.03 77.85L31 71.24L35.55 55.84L48.41 56.27C50.4415 53.1028 53.01 50.3144 56 48.03L55.4 35.77L71 32L76.81 42.17C81.1797 42.5859 85.4435 43.7602 89.41 45.64L100.88 38.69L111.94 50.34L104.61 62.1C105.812 65.4004 106.487 68.8696 106.61 72.38L119.05 78.97ZM79.29 58.23C58.05 52.64 47.54 85.23 72.09 91.68C92.78 97.17 100.94 63.93 79.29 58.23Z" fill="currentColor"/>
</svg>
