<svg fill="none" height="208" viewBox="0 0 146 208" width="146" xmlns="http://www.w3.org/2000/svg"><path d="m84.9999 0c-11.1623-.00000118-22.2153 2.1986-32.528 6.47024-10.3126 4.27166-19.683 10.53276-27.576 18.42566-7.893 7.893-14.154 17.2633-18.42568 27.576-4.27165 10.3127-6.47022118 21.3657-6.47022 32.5281-.00000118 11.1624 2.19857 22.215 6.47022 32.528 4.27168 10.313 10.53268 19.683 18.42568 27.576s17.2634 14.154 27.576 18.426c10.3127 4.271 21.3657 6.47 32.528 6.47 22.5361-.02 44.1411-8.988 60.0661-24.934l-17.666-17.666c-11.241 11.256-26.492 17.586-42.4001 17.6-15.9129 0-31.1741-6.321-42.4263-17.574-11.2522-11.252-17.5736-26.513-17.5736-42.426s6.3214-31.1742 17.5736-42.4264 26.5134-17.5736 42.4263-17.5736c15.9081.0138 31.1591 6.3443 42.4001 17.5996l17.666-17.666c-15.925-15.94519-37.53-24.9136257-60.0661-24.9336zm-84.463984 191.5-.535916 16h145.066l.536-16z" fill="#000"/></svg>