<svg width="146" height="208" viewBox="0 0 146 208" fill="none" xmlns="http://www.w3.org/2000/svg">
<path d="M84.9999 0C73.8376 -1.1819e-06 62.7846 2.1986 52.4719 6.47024C42.1593 10.7419 32.7889 17.003 24.8959 24.8959C17.0029 32.7889 10.7419 42.1592 6.47022 52.4719C2.19857 62.7846 -1.1819e-06 73.8376 0 85C-1.1819e-06 96.1624 2.19857 107.215 6.47022 117.528C10.7419 127.841 17.0029 137.211 24.8959 145.104C32.7889 152.997 42.1593 159.258 52.4719 163.53C62.7846 167.801 73.8376 170 84.9999 170C107.536 169.98 129.141 161.012 145.066 145.066L127.4 127.4C116.159 138.656 100.908 144.986 84.9999 145C69.087 145 53.8258 138.679 42.5736 127.426C31.3214 116.174 25 100.913 25 85C25 69.087 31.3214 53.8258 42.5736 42.5736C53.8258 31.3214 69.087 25 84.9999 25C100.908 25.0138 116.159 31.3443 127.4 42.5996L145.066 24.9336C129.141 8.98841 107.536 0.0199743 84.9999 0ZM0.535916 191.5L0 207.5H145.066L145.602 191.5H0.535916Z" fill="black"/>
</svg>
