<svg viewBox="0 0 150 150" fill="none" xmlns="http://www.w3.org/2000/svg">
<path fill-rule="evenodd" clip-rule="evenodd" d="M82.45 78.73C82.71 48.48 84.89 29 99.62 29L99.98 78.73H82.45ZM67.45 74.05C67.45 77.86 68.68 106.92 69.07 115.63C69.46 124.34 54.4 123.41 54.89 114.99C55.38 106.57 56.73 77.99 56.73 74.09C56.73 70.19 49 66.33 49 66.33L52.22 29.51L55.96 29.63L55.33 55.63L59.23 55.7L60.35 29.56L64.35 29.83L64.78 55.83L68.57 55.9L68.19 30.03L72.65 30.17L74.82 66.91C74.82 66.91 67.43 70.28 67.43 74.05H67.45ZM82.45 86.87V83.28H100.05L100.28 115.59C99.79 124.59 86.28 123.18 86.77 114.95V112.53L89.55 109.69C89.55 109.69 89.7 98.12 89.7 95.48C89.7461 93.4037 89.0314 91.3822 87.6905 89.7963C86.3496 88.2105 84.4751 87.1697 82.42 86.87H82.45Z" fill="currentColor"/>
</svg>
