<svg id="Слой_1" data-name="Слой 1" xmlns="http://www.w3.org/2000/svg" viewBox="0 0 150 190"><defs><style>.cls-1{fill-rule:evenodd;}</style></defs><title>Монтажная область 68</title><path class="cls-1" d="M107.14,87.61l-64.22-.14s-.19-2.06-.25-4.55c-.1-4.53,2.62-7.76,7.8-7.94.71,0,4.82,0,10.37,0-.06-1.34-.14-3.3-.17-4.8-.11-4.53,2.62-6.64,7.79-6.82,2.46-.08,11,.09,14.07.09,5.57,0,7.77,2.19,7.8,5.84,0,1.61-.07,4.14-.13,5.77l8.64,0c5.57,0,8.46,3.31,8.49,7C107.35,84.56,107.14,87.61,107.14,87.61ZM82.45,71l-14-.14V75l14,0Zm17.84,76.48-50,.45L46.87,93.5l56.51,0Z"/></svg>