<svg viewBox="0 0 150 150" fill="none" xmlns="http://www.w3.org/2000/svg">
<path fill-rule="evenodd" clip-rule="evenodd" d="M107.473 57.2714L43.2527 57.1314C43.2527 57.1314 43.0627 55.0714 43.0027 52.5814C42.9027 48.0514 45.6227 44.8214 50.8027 44.6414C51.5127 44.6414 55.6227 44.6414 61.1727 44.6414C61.1127 43.3014 61.0327 41.3414 61.0027 39.8414C60.8927 35.3114 63.6227 33.2014 68.7927 33.0214C71.2527 32.9414 79.7927 33.1114 82.8627 33.1114C88.4327 33.1114 90.6327 35.3014 90.6627 38.9514C90.6627 40.5614 90.5927 43.0914 90.5327 44.7214H99.1727C104.743 44.7214 107.633 48.0314 107.663 51.7214C107.683 54.2214 107.473 57.2714 107.473 57.2714ZM82.7827 40.6614L68.7827 40.5214V44.6614H82.7827V40.6614ZM100.623 117.141L50.6227 117.591L47.2027 63.1614H103.713L100.623 117.141Z" fill="currentColor"/>
</svg>
