<svg viewBox="0 0 150 150" fill="none" xmlns="http://www.w3.org/2000/svg">
<path fill-rule="evenodd" clip-rule="evenodd" d="M106.67 58.6294L109.61 72.0694L128.67 73.5994L128.73 94.7194L118.36 98.4994C117.83 91.1894 112.81 84.0994 103.27 84.0994C93.43 84.0994 88.19 91.9494 88.35 99.6594H64.81C64.81 94.0894 62.12 88.4694 56.88 85.7594L86.46 85.0294L87.1 49.7494L115.2 50.4194L119.79 58.2594L106.67 58.6294ZM22.52 48.5494C22.39 44.3694 23.21 39.6594 30.98 40.0194C38.75 40.3794 67.58 40.3094 72.98 40.3094C78.38 40.3094 81.52 43.2594 81.52 50.7194C81.52 61.8694 81.86 81.6094 81.86 81.6094L23.35 80.7694C23.35 80.7694 22.89 60.7494 22.52 48.5494ZM41.85 86.1394C39.9587 87.3079 38.3535 88.8856 37.1525 90.7563C35.9514 92.6271 35.1851 94.7434 34.91 96.9494L22 94.4294L23.3 86.5994L41.85 86.1394ZM49.71 87.8594C64.47 87.8594 64.84 110.589 50.71 110.589C34.01 110.589 35.24 87.8594 49.72 87.8594H49.71ZM50.18 103.969C56.06 103.969 55.9 94.4894 49.75 94.4894C43.6 94.4894 43.22 103.969 50.19 103.969H50.18ZM103.3 87.8594C118.06 87.8594 118.44 110.589 104.3 110.589C87.6 110.589 88.83 87.8594 103.31 87.8594H103.3ZM103.77 103.969C109.65 103.969 109.5 94.4894 103.35 94.4894C97.2 94.4894 96.81 103.969 103.78 103.969H103.77Z" fill="currentColor"/>
</svg>
