<svg viewBox="0 0 150 150" fill="none" xmlns="http://www.w3.org/2000/svg">
<path fill-rule="evenodd" clip-rule="evenodd" d="M90.84 84.5C85.28 84.5 83.03 81.22 83.03 75.67C83.03 74.93 83.03 72.5 83.03 71.35C83.03 67.54 85.47 64.7 89.36 64.64C101.21 64.48 114.48 64.72 114.48 64.72L114.85 83.65C114.85 83.65 100.64 84.5 90.84 84.5ZM87.07 59.11C81.77 59.18 77.35 64.11 77.35 69.35C77.35 70.91 77.35 75.85 77.35 76.86C77.35 84.43 81.93 89.77 89.51 89.77C96.38 89.77 104.16 89.85 110.12 89.93C110.06 93.1 110.02 95.52 110.02 96.56C110.02 101.04 107.15 104.38 102.58 104.45C88.64 104.64 35.81 105.2 35.81 105.2L35 46C35 46 90 45 101.51 45C108.05 45 110.69 48.85 110.69 55.38C110.69 56.13 110.69 57.22 110.69 58.53C104.53 58.75 95.82 58.99 87.07 59.11Z" fill="currentColor"/>
</svg>
