<svg viewBox="0 0 150 150" fill="none" xmlns="http://www.w3.org/2000/svg">
<path fill-rule="evenodd" clip-rule="evenodd" d="M105.36 121.06L70.73 111.9L57.73 120.7L23 111.53L23.46 78.23L45.72 64.06L51.55 65.62L52.24 39L81.96 29L106.96 43.37L107.31 68.2L126.31 73.26L127.31 106.96L105.36 121.06ZM101.21 112.19L101.11 90.89L77.97 85.41L77.81 106.11L101.21 112.19ZM66.21 80.04L60.48 76.68L49.67 83.78L56.62 85.71L66.21 80.04ZM29.97 105.75L55.53 112.75L55.38 91.53L46.65 89.3L46.23 99.53L38.11 97.13L38.63 87.23L30.11 85.06L29.97 105.75ZM53.32 72.53L47.32 71.13L33.4 79.27L41.25 81.46L54.11 72.97L53.32 72.53ZM57.94 67.46L75.24 77.86V57.39L69.29 54.39V63.89L62.84 59.97L62.7 51.08L57.98 48.73L57.94 67.46ZM81.17 35.13L60.17 42.34L64.69 44.53L85.56 37.53L81.17 35.13ZM93.89 42.01L72.99 48.53L77.99 50.96L98.65 44.61L93.89 42.01ZM116.36 79.4L105.27 76.46L96.01 79.39L110.81 82.53L111.37 95.53L116.5 92.29L116.36 79.4Z" fill="currentColor"/>
</svg>
